<svg width="60" height="61" viewBox="0 0 60 61" fill="none" xmlns="http://www.w3.org/2000/svg">
<g id="facebook_svgrepo.com">
<path id="Vector" fill-rule="evenodd" clip-rule="evenodd" d="M50 3C54.1423 3 57.5 6.35788 57.5 10.5V50.5C57.5 54.6423 54.1423 58 50 58H10C5.85788 58 2.5 54.6423 2.5 50.5V10.5C2.5 6.35788 5.85788 3 10 3H50ZM50 8C51.3807 8 52.5 9.1193 52.5 10.5V50.5C52.5 51.8807 51.3807 53 50 53H37.5V35.4997H42.6905C43.7665 35.4997 44.7218 34.8113 45.0623 33.7903L46.1697 30.4677C46.5745 29.2535 45.6707 27.9998 44.391 27.9998H37.5V22.9998C37.5 21.7498 38.75 20.4998 40 20.4998H45C46.3807 20.4998 47.5 19.3805 47.5 17.9998V16.2848C47.5 15.4773 46.9842 14.7532 46.2033 14.5472C42.9263 13.6824 40 13.6824 40 13.6824C33.75 13.6824 30 17.9998 30 21.7498V27.9998H25C23.6193 27.9998 22.5 29.119 22.5 30.4998V32.9998C22.5 34.3805 23.6193 35.4997 25 35.4997H30V53H10C8.6193 53 7.5 51.8807 7.5 50.5V10.5C7.5 9.1193 8.6193 8 10 8H50Z" fill="#C0C0C0"/>
</g>
</svg>
