<svg width="61" height="60" viewBox="0 0 61 60" fill="none" xmlns="http://www.w3.org/2000/svg">
<g id="instagram_svgrepo.com" clip-path="url(#clip0_1_51)">
<path id="Vector" fill-rule="evenodd" clip-rule="evenodd" d="M33 47.5C41.2843 47.5 48 40.7843 48 32.5C48 24.2157 41.2843 17.5 33 17.5C24.7157 17.5 18 24.2157 18 32.5C18 40.7843 24.7157 47.5 33 47.5ZM33 42.5C38.5228 42.5 43 38.0228 43 32.5C43 26.9771 38.5228 22.5 33 22.5C27.4771 22.5 23 26.9771 23 32.5C23 38.0228 27.4771 42.5 33 42.5Z" fill="#C0C0C0"/>
<path id="Vector_2" d="M48 15C46.6193 15 45.5 16.1193 45.5 17.5C45.5 18.8807 46.6193 20 48 20C49.3807 20 50.5 18.8807 50.5 17.5C50.5 16.1193 49.3807 15 48 15Z" fill="#C0C0C0"/>
<path id="Vector_3" fill-rule="evenodd" clip-rule="evenodd" d="M7.1349 13.1902C5.5 16.3988 5.5 20.5992 5.5 29V36C5.5 44.4007 5.5 48.6012 7.1349 51.8097C8.573 54.6322 10.8677 56.927 13.6902 58.365C16.8988 60 21.0992 60 29.5 60H36.5C44.9007 60 49.1012 60 52.3097 58.365C55.1322 56.927 57.427 54.6322 58.865 51.8097C60.5 48.6012 60.5 44.4007 60.5 36V29C60.5 20.5992 60.5 16.3988 58.865 13.1902C57.427 10.3677 55.1322 8.073 52.3097 6.6349C49.1012 5 44.9007 5 36.5 5H29.5C21.0992 5 16.8988 5 13.6902 6.6349C10.8677 8.073 8.573 10.3677 7.1349 13.1902ZM36.5 10H29.5C25.2171 10 22.3056 10.0039 20.0552 10.1877C17.8631 10.3668 16.7421 10.6915 15.9601 11.0899C14.0785 12.0487 12.5487 13.5785 11.5899 15.4601C11.1915 16.2421 10.8668 17.3631 10.6877 19.5552C10.5039 21.8056 10.5 24.7171 10.5 29V36C10.5 40.283 10.5039 43.1943 10.6877 45.4448C10.8668 47.637 11.1915 48.758 11.5899 49.54C12.5487 51.4215 14.0785 52.9512 15.9601 53.91C16.7421 54.3085 17.8631 54.6333 20.0552 54.8122C22.3056 54.996 25.2171 55 29.5 55H36.5C40.783 55 43.6943 54.996 45.9448 54.8122C48.137 54.6333 49.258 54.3085 50.04 53.91C51.9215 52.9512 53.4512 51.4215 54.41 49.54C54.8085 48.758 55.1333 47.637 55.3122 45.4448C55.496 43.1943 55.5 40.283 55.5 36V29C55.5 24.7171 55.496 21.8056 55.3122 19.5552C55.1333 17.3631 54.8085 16.2421 54.41 15.4601C53.4512 13.5785 51.9215 12.0487 50.04 11.0899C49.258 10.6915 48.137 10.3668 45.9448 10.1877C43.6943 10.0039 40.783 10 36.5 10Z" fill="#C0C0C0"/>
</g>
<defs>
<clipPath id="clip0_1_51">
<rect width="60" height="60" fill="white" transform="translate(0.5)"/>
</clipPath>
</defs>
</svg>
