<svg width="31" height="24" viewBox="0 0 31 24" fill="none" xmlns="http://www.w3.org/2000/svg">
<path id="Vector" d="M25.8125 0.268274C26.7093 0.820566 27.0166 2.04373 26.4988 3.0003L24.2885 7.08378C24.2549 7.15874 24.2165 7.2323 24.1734 7.30401L24.1424 7.35351L18.554 17.6783C18.9922 18.3329 19.25 19.1345 19.25 20.0001C19.25 22.2092 17.5711 24 15.5 24C13.4289 24 11.75 22.2092 11.75 20.0001C11.75 17.9273 13.2281 16.2227 15.1213 16.0203L20.0021 7.00304C18.7111 6.40171 17.3206 6.06205 15.9022 6.00793C13.8835 5.93089 11.8826 6.43505 10.1096 7.46743C8.33656 8.49982 6.85685 10.0224 5.82583 11.8752C4.79478 13.728 4.25045 15.8428 4.25 17.9973C4.24977 19.1019 3.41011 19.9971 2.37458 19.9969C1.33904 19.9967 0.5 19.1011 0.5 17.9965C0.500608 15.1236 1.22637 12.304 2.60109 9.83354C3.9758 7.36311 5.94875 5.33306 8.31277 3.95654C10.6768 2.58002 13.3447 1.90783 16.0363 2.01055C18.0687 2.08809 20.0579 2.6053 21.8859 3.52267L23.2512 1.00032C23.7689 0.0437569 24.9157 -0.283998 25.8125 0.268274ZM25.7887 9.08075C26.6765 8.51232 27.8283 8.81927 28.3612 9.76634C29.7607 12.2534 30.5 15.0995 30.5 18.0001C30.5 19.1047 29.6606 20.0001 28.625 20.0001C27.5894 20.0001 26.75 19.1047 26.75 18.0001C26.75 15.8246 26.1956 13.6901 25.1459 11.8248C24.6131 10.8777 24.9009 9.64916 25.7887 9.08075Z" fill="#C0C0C0"/>
</svg>
